<svg width="128" height="128" viewBox="0 0 128 128" xmlns="http://www.w3.org/2000/svg">
  <!-- 拡張機能A: パズルピース + 画面拡大 -->

  <!-- パズルピースの形状 -->
  <path d="M30 30 L70 30 C75 30 80 35 80 40 C80 45 85 50 90 50 C95 50 100 55 100 60 L100 90 C100 95 95 100 90 100 L60 100 C55 100 50 95 50 90 C50 85 45 80 40 80 C35 80 30 75 30 70 Z" fill="#2d5aa0" opacity="0.8"/>

  <!-- 内部に画面拡大のシンボル -->
  <rect x="45" y="45" width="30" height="30" fill="none" stroke="white" stroke-width="2"/>
  <path d="M50 50 L42 42 M75 50 L83 42 M50 70 L42 78 M75 70 L83 78" stroke="white" stroke-width="2"/>
</svg>